<?xml version="1.0" encoding="UTF-8"?>
<svg viewBox="-60 0 1040 640" xmlns="http://www.w3.org/2000/svg"><rect x="-60" y="0" width="1040" height="640" fill="#efead8"/><g transform="translate(-12 98) scale(0.9)"><g stroke-linecap="round" stroke-linejoin="round"><g transform="rotate(40 400 375)" stroke="#002a8c" stroke-width="8"><g transform="translate(16 0) rotate(-5 400 375)"><path fill="#0038b8" stroke="#002a8c" stroke-width="8" d=" M 330 420 C 420 440 510 430 560 390 C 612 346 622 282 600 246 C 578 212 540 210 524 238 C 552 266 548 300 516 322 C 482 344 430 344 380 328 Z"/><g fill="none" stroke-width="6"><path d="M 420 360 C 460 358 498 344 524 322"/><path d="M 440 388 C 488 388 532 372 560 344"/></g></g><g fill="#d62828" stroke-width="7.2"><path d="M 580 216 C 612 198 636 200 644 218 C 634 226 616 230 596 228 Z"/><path d="M 600 246 C 638 238 664 244 666 262 C 654 270 634 270 614 262 Z"/><path d="M 604 278 C 638 284 658 298 652 316 C 638 318 620 312 604 300 Z"/></g></g><g transform="translate(415 240) scale(2.6)"><g fill="#d62828" stroke="#d62828" stroke-width="3" stroke-linejoin="round"><g transform="translate(0 7)"><path d="M -50 -5 C -72 0, -90 15, -105 35 C -101 41, -95 44, -88 42 C -78 36, -68 22, -52 10 Z"/></g><g transform="translate(0 2.3)"><path d="M -98 33 C -118 25, -140 23, -152 33 C -145 35, -138 36, -130 37 C -118 38, -108 37, -98 37 Z"/><path d="M -98 47 C -118 55, -140 57, -152 47 C -145 45, -138 44, -130 43 C -118 42, -108 43, -98 43 Z"/></g></g></g><g transform="translate(400 320) scale(2.6) rotate(-50 50 0)"><g fill="#0038b8" stroke="#002a8c" stroke-width="8" stroke-linejoin="round"><path d="M 48 -8 C 75 -5, 105 0, 130 15 C 135 22, 138 30, 136 36 C 128 34, 115 28, 100 22 C 80 15, 62 8, 50 8 Z"/><g transform="rotate(-10 128 15)"><path d="M 128 12 C 148 -5, 185 -20, 222 -5 C 220 2, 212 8, 200 11 C 180 14, 158 15, 138 16 C 132 16, 128 15, 128 12 Z"/><g transform="translate(0 -5)"><path d="M 128 38 C 148 55, 185 70, 222 55 C 220 48, 212 42, 200 39 C 180 36, 158 35, 138 34 C 132 34, 128 35, 128 38 Z"/></g></g></g><g transform="rotate(-10 128 15) translate(0 5)"><path d="M 155 -5 C 175 -10, 195 -10, 210 -5" fill="none" stroke="#6aa5ff" stroke-width="3" stroke-linecap="round" opacity="0.5" transform="rotate(-5 182 -7)"/></g></g><g stroke="#002a8c" stroke-width="8"><path fill="#0038b8" d=" M 400 210 C 280 210 188 260 188 340 C 188 432 268 482 400 482 C 534 482 610 432 610 340 C 610 260 520 210 400 210 Z"/><path fill="#ffffff" stroke="#002a8c" stroke-width="6.8" d=" M 290 360 C 300 320 346 300 400 300 C 454 300 500 320 510 360 C 510 410 460 450 400 450 C 340 450 290 410 290 360 Z"/><g fill="none" stroke="#002a8c" stroke-width="4"><path d="M 195 345 C 260 378 540 378 605 345"/><path d="M 318 418 C 350 432 450 432 482 418"/></g></g><g transform="rotate(-5 400 320)"><g stroke="#002a8c" stroke-width="8"><ellipse cx="400" cy="210" rx="144" ry="120" fill="#ffffff"/></g><g fill="none" stroke="#002a8c" stroke-width="8.4"><path d="M 360 62 C 330 20 314 -10 294 -40"/><path d="M 440 62 C 470 20 486 -10 506 -40"/></g><ellipse cx="294" cy="-40" rx="12" ry="14" fill="#d62828" stroke="#002a8c" stroke-width="5.6"/><ellipse cx="506" cy="-40" rx="12" ry="14" fill="#d62828" stroke="#002a8c" stroke-width="5.6"/><g transform="translate(400 30)" stroke="#002a8c" stroke-width="4.8" stroke-linejoin="round"><path fill="#d62828" d="M -22 0 C -28 -10 -18 -16 -8 -8 L 0 -2 L 8 -8 C 18 -16 28 -10 22 0 C 28 10 18 16 8 8 L 0 2 L -8 8 C -18 16 -28 10 -22 0 Z"/><circle cx="0" cy="0" r="3" fill="#002a8c" stroke="none"/></g><g fill="none" stroke="#002a8c" stroke-width="5.6"><path d="M 342 148 L 336 138"/><path d="M 362 144 L 360 130"/><path d="M 382 148 L 388 138"/><path d="M 418 148 L 412 138"/><path d="M 438 144 L 440 130"/><path d="M 458 148 L 464 138"/></g><ellipse cx="362" cy="186" rx="26" ry="30" fill="#ffffff" stroke="#002a8c" stroke-width="6.8"/><ellipse cx="438" cy="186" rx="26" ry="30" fill="#ffffff" stroke="#002a8c" stroke-width="6.8"/><ellipse cx="370" cy="184" rx="11" ry="15" fill="#002a8c"/><ellipse cx="446" cy="184" rx="11" ry="15" fill="#002a8c"/><circle cx="374" cy="178" r="4" fill="#ffffff"/><circle cx="450" cy="178" r="4" fill="#ffffff"/><circle cx="366" cy="193" r="2" fill="#ffffff"/><circle cx="442" cy="193" r="2" fill="#ffffff"/><g opacity="0.75"><ellipse cx="306" cy="230" rx="16" ry="8" fill="#d62828"/><ellipse cx="494" cy="230" rx="16" ry="8" fill="#d62828"/></g><path fill="none" stroke="#002a8c" stroke-width="8" stroke-linecap="round" d="M 358 250 Q 400 280 442 250"/><path fill="#d62828" stroke="#002a8c" stroke-width="4.4" d="M 390 270 Q 400 278 410 270 Q 400 276 390 270 Z"/></g><g stroke="none"><g transform="translate(590 10) scale(3)"><path fill="#d62828" d="M 0 0 l 5 12 l 12 5 l -12 5 l -5 12 l -5 -12 l -12 -5 l 12 -5 z" opacity="0.9"/></g><g transform="translate(560 -60) scale(3)"><path fill="#0038b8" d="M 0 0 l 3 8 l 8 3 l -8 3 l -3 8 l -3 -8 l -8 -3 l 8 -3 z"/></g></g></g></g></svg>