<?xml version="1.0" encoding="UTF-8"?>
<svg viewBox="-60 0 1040 1040" xmlns="http://www.w3.org/2000/svg"><rect x="-60" y="0" width="1040" height="1040" fill="#0038b8"/><g fill="#ffffff" opacity="0.06"><circle cx="-40" cy="40" r="3"/><circle cx="-4" cy="40" r="3"/><circle cx="32" cy="40" r="3"/><circle cx="68" cy="40" r="3"/><circle cx="104" cy="40" r="3"/><circle cx="140" cy="40" r="3"/><circle cx="176" cy="40" r="3"/><circle cx="212" cy="40" r="3"/><circle cx="248" cy="40" r="3"/><circle cx="284" cy="40" r="3"/><circle cx="320" cy="40" r="3"/><circle cx="356" cy="40" r="3"/><circle cx="392" cy="40" r="3"/><circle cx="428" cy="40" r="3"/><circle cx="464" cy="40" r="3"/><circle cx="500" cy="40" r="3"/><circle cx="536" cy="40" r="3"/><circle cx="572" cy="40" r="3"/><circle cx="608" cy="40" r="3"/><circle cx="644" cy="40" r="3"/><circle cx="680" cy="40" r="3"/><circle cx="716" cy="40" r="3"/><circle cx="752" cy="40" r="3"/><circle cx="788" cy="40" r="3"/><circle cx="824" cy="40" r="3"/><circle cx="860" cy="40" r="3"/><circle cx="896" cy="40" r="3"/><circle cx="932" cy="40" r="3"/><circle cx="968" cy="40" r="3"/><circle cx="1004" cy="40" r="3"/><circle cx="-40" cy="92" r="3"/><circle cx="-4" cy="92" r="3"/><circle cx="32" cy="92" r="3"/><circle cx="68" cy="92" r="3"/><circle cx="104" cy="92" r="3"/><circle cx="140" cy="92" r="3"/><circle cx="176" cy="92" r="3"/><circle cx="212" cy="92" r="3"/><circle cx="248" cy="92" r="3"/><circle cx="284" cy="92" r="3"/><circle cx="320" cy="92" r="3"/><circle cx="356" cy="92" r="3"/><circle cx="392" cy="92" r="3"/><circle cx="428" cy="92" r="3"/><circle cx="464" cy="92" r="3"/><circle cx="500" cy="92" r="3"/><circle cx="536" cy="92" r="3"/><circle cx="572" cy="92" r="3"/><circle cx="608" cy="92" r="3"/><circle cx="644" cy="92" r="3"/><circle cx="680" cy="92" r="3"/><circle cx="716" cy="92" r="3"/><circle cx="752" cy="92" r="3"/><circle cx="788" cy="92" r="3"/><circle cx="824" cy="92" r="3"/><circle cx="860" cy="92" r="3"/><circle cx="896" cy="92" r="3"/><circle cx="932" cy="92" r="3"/><circle cx="968" cy="92" r="3"/><circle cx="1004" cy="92" r="3"/><circle cx="-40" cy="144" r="3"/><circle cx="-4" cy="144" r="3"/><circle cx="32" cy="144" r="3"/><circle cx="68" cy="144" r="3"/><circle cx="104" cy="144" r="3"/><circle cx="140" cy="144" r="3"/><circle cx="176" cy="144" r="3"/><circle cx="212" cy="144" r="3"/><circle cx="248" cy="144" r="3"/><circle cx="284" cy="144" r="3"/><circle cx="320" cy="144" r="3"/><circle cx="356" cy="144" r="3"/><circle cx="392" cy="144" r="3"/><circle cx="428" cy="144" r="3"/><circle cx="464" cy="144" r="3"/><circle cx="500" cy="144" r="3"/><circle cx="536" cy="144" r="3"/><circle cx="572" cy="144" r="3"/><circle cx="608" cy="144" r="3"/><circle cx="644" cy="144" r="3"/><circle cx="680" cy="144" r="3"/><circle cx="716" cy="144" r="3"/><circle cx="752" cy="144" r="3"/><circle cx="788" cy="144" r="3"/><circle cx="824" cy="144" r="3"/><circle cx="860" cy="144" r="3"/><circle cx="896" cy="144" r="3"/><circle cx="932" cy="144" r="3"/><circle cx="968" cy="144" r="3"/><circle cx="1004" cy="144" r="3"/><circle cx="-40" cy="196" r="3"/><circle cx="-4" cy="196" r="3"/><circle cx="32" cy="196" r="3"/><circle cx="68" cy="196" r="3"/><circle cx="104" cy="196" r="3"/><circle cx="140" cy="196" r="3"/><circle cx="176" cy="196" r="3"/><circle cx="212" cy="196" r="3"/><circle cx="248" cy="196" r="3"/><circle cx="284" cy="196" r="3"/><circle cx="320" cy="196" r="3"/><circle cx="356" cy="196" r="3"/><circle cx="392" cy="196" r="3"/><circle cx="428" cy="196" r="3"/><circle cx="464" cy="196" r="3"/><circle cx="500" cy="196" r="3"/><circle cx="536" cy="196" r="3"/><circle cx="572" cy="196" r="3"/><circle cx="608" cy="196" r="3"/><circle cx="644" cy="196" r="3"/><circle cx="680" cy="196" r="3"/><circle cx="716" cy="196" r="3"/><circle cx="752" cy="196" r="3"/><circle cx="788" cy="196" r="3"/><circle cx="824" cy="196" r="3"/><circle cx="860" cy="196" r="3"/><circle cx="896" cy="196" r="3"/><circle cx="932" cy="196" r="3"/><circle cx="968" cy="196" r="3"/><circle cx="1004" cy="196" r="3"/><circle cx="-40" cy="248" r="3"/><circle cx="-4" cy="248" r="3"/><circle cx="32" cy="248" r="3"/><circle cx="68" cy="248" r="3"/><circle cx="104" cy="248" r="3"/><circle cx="140" cy="248" r="3"/><circle cx="176" cy="248" r="3"/><circle cx="212" cy="248" r="3"/><circle cx="248" cy="248" r="3"/><circle cx="284" cy="248" r="3"/><circle cx="320" cy="248" r="3"/><circle cx="356" cy="248" r="3"/><circle cx="392" cy="248" r="3"/><circle cx="428" cy="248" r="3"/><circle cx="464" cy="248" r="3"/><circle cx="500" cy="248" r="3"/><circle cx="536" cy="248" r="3"/><circle cx="572" cy="248" r="3"/><circle cx="608" cy="248" r="3"/><circle cx="644" cy="248" r="3"/><circle cx="680" cy="248" r="3"/><circle cx="716" cy="248" r="3"/><circle cx="752" cy="248" r="3"/><circle cx="788" cy="248" r="3"/><circle cx="824" cy="248" r="3"/><circle cx="860" cy="248" r="3"/><circle cx="896" cy="248" r="3"/><circle cx="932" cy="248" r="3"/><circle cx="968" cy="248" r="3"/><circle cx="1004" cy="248" r="3"/><circle cx="-40" cy="300" r="3"/><circle cx="-4" cy="300" r="3"/><circle cx="32" cy="300" r="3"/><circle cx="68" cy="300" r="3"/><circle cx="104" cy="300" r="3"/><circle cx="140" cy="300" r="3"/><circle cx="176" cy="300" r="3"/><circle cx="212" cy="300" r="3"/><circle cx="248" cy="300" r="3"/><circle cx="284" cy="300" r="3"/><circle cx="320" cy="300" r="3"/><circle cx="356" cy="300" r="3"/><circle cx="392" cy="300" r="3"/><circle cx="428" cy="300" r="3"/><circle cx="464" cy="300" r="3"/><circle cx="500" cy="300" r="3"/><circle cx="536" cy="300" r="3"/><circle cx="572" cy="300" r="3"/><circle cx="608" cy="300" r="3"/><circle cx="644" cy="300" r="3"/><circle cx="680" cy="300" r="3"/><circle cx="716" cy="300" r="3"/><circle cx="752" cy="300" r="3"/><circle cx="788" cy="300" r="3"/><circle cx="824" cy="300" r="3"/><circle cx="860" cy="300" r="3"/><circle cx="896" cy="300" r="3"/><circle cx="932" cy="300" r="3"/><circle cx="968" cy="300" r="3"/><circle cx="1004" cy="300" r="3"/><circle cx="-40" cy="352" r="3"/><circle cx="-4" cy="352" r="3"/><circle cx="32" cy="352" r="3"/><circle cx="68" cy="352" r="3"/><circle cx="104" cy="352" r="3"/><circle cx="140" cy="352" r="3"/><circle cx="176" cy="352" r="3"/><circle cx="212" cy="352" r="3"/><circle cx="248" cy="352" r="3"/><circle cx="284" cy="352" r="3"/><circle cx="320" cy="352" r="3"/><circle cx="356" cy="352" r="3"/><circle cx="392" cy="352" r="3"/><circle cx="428" cy="352" r="3"/><circle cx="464" cy="352" r="3"/><circle cx="500" cy="352" r="3"/><circle cx="536" cy="352" r="3"/><circle cx="572" cy="352" r="3"/><circle cx="608" cy="352" r="3"/><circle cx="644" cy="352" r="3"/><circle cx="680" cy="352" r="3"/><circle cx="716" cy="352" r="3"/><circle cx="752" cy="352" r="3"/><circle cx="788" cy="352" r="3"/><circle cx="824" cy="352" r="3"/><circle cx="860" cy="352" r="3"/><circle cx="896" cy="352" r="3"/><circle cx="932" cy="352" r="3"/><circle cx="968" cy="352" r="3"/><circle cx="1004" cy="352" r="3"/><circle cx="-40" cy="404" r="3"/><circle cx="-4" cy="404" r="3"/><circle cx="32" cy="404" r="3"/><circle cx="68" cy="404" r="3"/><circle cx="104" cy="404" r="3"/><circle cx="140" cy="404" r="3"/><circle cx="176" cy="404" r="3"/><circle cx="212" cy="404" r="3"/><circle cx="248" cy="404" r="3"/><circle cx="284" cy="404" r="3"/><circle cx="320" cy="404" r="3"/><circle cx="356" cy="404" r="3"/><circle cx="392" cy="404" r="3"/><circle cx="428" cy="404" r="3"/><circle cx="464" cy="404" r="3"/><circle cx="500" cy="404" r="3"/><circle cx="536" cy="404" r="3"/><circle cx="572" cy="404" r="3"/><circle cx="608" cy="404" r="3"/><circle cx="644" cy="404" r="3"/><circle cx="680" cy="404" r="3"/><circle cx="716" cy="404" r="3"/><circle cx="752" cy="404" r="3"/><circle cx="788" cy="404" r="3"/><circle cx="824" cy="404" r="3"/><circle cx="860" cy="404" r="3"/><circle cx="896" cy="404" r="3"/><circle cx="932" cy="404" r="3"/><circle cx="968" cy="404" r="3"/><circle cx="1004" cy="404" r="3"/><circle cx="-40" cy="456" r="3"/><circle cx="-4" cy="456" r="3"/><circle cx="32" cy="456" r="3"/><circle cx="68" cy="456" r="3"/><circle cx="104" cy="456" r="3"/><circle cx="140" cy="456" r="3"/><circle cx="176" cy="456" r="3"/><circle cx="212" cy="456" r="3"/><circle cx="248" cy="456" r="3"/><circle cx="284" cy="456" r="3"/><circle cx="320" cy="456" r="3"/><circle cx="356" cy="456" r="3"/><circle cx="392" cy="456" r="3"/><circle cx="428" cy="456" r="3"/><circle cx="464" cy="456" r="3"/><circle cx="500" cy="456" r="3"/><circle cx="536" cy="456" r="3"/><circle cx="572" cy="456" r="3"/><circle cx="608" cy="456" r="3"/><circle cx="644" cy="456" r="3"/><circle cx="680" cy="456" r="3"/><circle cx="716" cy="456" r="3"/><circle cx="752" cy="456" r="3"/><circle cx="788" cy="456" r="3"/><circle cx="824" cy="456" r="3"/><circle cx="860" cy="456" r="3"/><circle cx="896" cy="456" r="3"/><circle cx="932" cy="456" r="3"/><circle cx="968" cy="456" r="3"/><circle cx="1004" cy="456" r="3"/><circle cx="-40" cy="508" r="3"/><circle cx="-4" cy="508" r="3"/><circle cx="32" cy="508" r="3"/><circle cx="68" cy="508" r="3"/><circle cx="104" cy="508" r="3"/><circle cx="140" cy="508" r="3"/><circle cx="176" cy="508" r="3"/><circle cx="212" cy="508" r="3"/><circle cx="248" cy="508" r="3"/><circle cx="284" cy="508" r="3"/><circle cx="320" cy="508" r="3"/><circle cx="356" cy="508" r="3"/><circle cx="392" cy="508" r="3"/><circle cx="428" cy="508" r="3"/><circle cx="464" cy="508" r="3"/><circle cx="500" cy="508" r="3"/><circle cx="536" cy="508" r="3"/><circle cx="572" cy="508" r="3"/><circle cx="608" cy="508" r="3"/><circle cx="644" cy="508" r="3"/><circle cx="680" cy="508" r="3"/><circle cx="716" cy="508" r="3"/><circle cx="752" cy="508" r="3"/><circle cx="788" cy="508" r="3"/><circle cx="824" cy="508" r="3"/><circle cx="860" cy="508" r="3"/><circle cx="896" cy="508" r="3"/><circle cx="932" cy="508" r="3"/><circle cx="968" cy="508" r="3"/><circle cx="1004" cy="508" r="3"/><circle cx="-40" cy="560" r="3"/><circle cx="-4" cy="560" r="3"/><circle cx="32" cy="560" r="3"/><circle cx="68" cy="560" r="3"/><circle cx="104" cy="560" r="3"/><circle cx="140" cy="560" r="3"/><circle cx="176" cy="560" r="3"/><circle cx="212" cy="560" r="3"/><circle cx="248" cy="560" r="3"/><circle cx="284" cy="560" r="3"/><circle cx="320" cy="560" r="3"/><circle cx="356" cy="560" r="3"/><circle cx="392" cy="560" r="3"/><circle cx="428" cy="560" r="3"/><circle cx="464" cy="560" r="3"/><circle cx="500" cy="560" r="3"/><circle cx="536" cy="560" r="3"/><circle cx="572" cy="560" r="3"/><circle cx="608" cy="560" r="3"/><circle cx="644" cy="560" r="3"/><circle cx="680" cy="560" r="3"/><circle cx="716" cy="560" r="3"/><circle cx="752" cy="560" r="3"/><circle cx="788" cy="560" r="3"/><circle cx="824" cy="560" r="3"/><circle cx="860" cy="560" r="3"/><circle cx="896" cy="560" r="3"/><circle cx="932" cy="560" r="3"/><circle cx="968" cy="560" r="3"/><circle cx="1004" cy="560" r="3"/><circle cx="-40" cy="612" r="3"/><circle cx="-4" cy="612" r="3"/><circle cx="32" cy="612" r="3"/><circle cx="68" cy="612" r="3"/><circle cx="104" cy="612" r="3"/><circle cx="140" cy="612" r="3"/><circle cx="176" cy="612" r="3"/><circle cx="212" cy="612" r="3"/><circle cx="248" cy="612" r="3"/><circle cx="284" cy="612" r="3"/><circle cx="320" cy="612" r="3"/><circle cx="356" cy="612" r="3"/><circle cx="392" cy="612" r="3"/><circle cx="428" cy="612" r="3"/><circle cx="464" cy="612" r="3"/><circle cx="500" cy="612" r="3"/><circle cx="536" cy="612" r="3"/><circle cx="572" cy="612" r="3"/><circle cx="608" cy="612" r="3"/><circle cx="644" cy="612" r="3"/><circle cx="680" cy="612" r="3"/><circle cx="716" cy="612" r="3"/><circle cx="752" cy="612" r="3"/><circle cx="788" cy="612" r="3"/><circle cx="824" cy="612" r="3"/><circle cx="860" cy="612" r="3"/><circle cx="896" cy="612" r="3"/><circle cx="932" cy="612" r="3"/><circle cx="968" cy="612" r="3"/><circle cx="1004" cy="612" r="3"/><circle cx="-40" cy="664" r="3"/><circle cx="-4" cy="664" r="3"/><circle cx="32" cy="664" r="3"/><circle cx="68" cy="664" r="3"/><circle cx="104" cy="664" r="3"/><circle cx="140" cy="664" r="3"/><circle cx="176" cy="664" r="3"/><circle cx="212" cy="664" r="3"/><circle cx="248" cy="664" r="3"/><circle cx="284" cy="664" r="3"/><circle cx="320" cy="664" r="3"/><circle cx="356" cy="664" r="3"/><circle cx="392" cy="664" r="3"/><circle cx="428" cy="664" r="3"/><circle cx="464" cy="664" r="3"/><circle cx="500" cy="664" r="3"/><circle cx="536" cy="664" r="3"/><circle cx="572" cy="664" r="3"/><circle cx="608" cy="664" r="3"/><circle cx="644" cy="664" r="3"/><circle cx="680" cy="664" r="3"/><circle cx="716" cy="664" r="3"/><circle cx="752" cy="664" r="3"/><circle cx="788" cy="664" r="3"/><circle cx="824" cy="664" r="3"/><circle cx="860" cy="664" r="3"/><circle cx="896" cy="664" r="3"/><circle cx="932" cy="664" r="3"/><circle cx="968" cy="664" r="3"/><circle cx="1004" cy="664" r="3"/><circle cx="-40" cy="716" r="3"/><circle cx="-4" cy="716" r="3"/><circle cx="32" cy="716" r="3"/><circle cx="68" cy="716" r="3"/><circle cx="104" cy="716" r="3"/><circle cx="140" cy="716" r="3"/><circle cx="176" cy="716" r="3"/><circle cx="212" cy="716" r="3"/><circle cx="248" cy="716" r="3"/><circle cx="284" cy="716" r="3"/><circle cx="320" cy="716" r="3"/><circle cx="356" cy="716" r="3"/><circle cx="392" cy="716" r="3"/><circle cx="428" cy="716" r="3"/><circle cx="464" cy="716" r="3"/><circle cx="500" cy="716" r="3"/><circle cx="536" cy="716" r="3"/><circle cx="572" cy="716" r="3"/><circle cx="608" cy="716" r="3"/><circle cx="644" cy="716" r="3"/><circle cx="680" cy="716" r="3"/><circle cx="716" cy="716" r="3"/><circle cx="752" cy="716" r="3"/><circle cx="788" cy="716" r="3"/><circle cx="824" cy="716" r="3"/><circle cx="860" cy="716" r="3"/><circle cx="896" cy="716" r="3"/><circle cx="932" cy="716" r="3"/><circle cx="968" cy="716" r="3"/><circle cx="1004" cy="716" r="3"/><circle cx="-40" cy="768" r="3"/><circle cx="-4" cy="768" r="3"/><circle cx="32" cy="768" r="3"/><circle cx="68" cy="768" r="3"/><circle cx="104" cy="768" r="3"/><circle cx="140" cy="768" r="3"/><circle cx="176" cy="768" r="3"/><circle cx="212" cy="768" r="3"/><circle cx="248" cy="768" r="3"/><circle cx="284" cy="768" r="3"/><circle cx="320" cy="768" r="3"/><circle cx="356" cy="768" r="3"/><circle cx="392" cy="768" r="3"/><circle cx="428" cy="768" r="3"/><circle cx="464" cy="768" r="3"/><circle cx="500" cy="768" r="3"/><circle cx="536" cy="768" r="3"/><circle cx="572" cy="768" r="3"/><circle cx="608" cy="768" r="3"/><circle cx="644" cy="768" r="3"/><circle cx="680" cy="768" r="3"/><circle cx="716" cy="768" r="3"/><circle cx="752" cy="768" r="3"/><circle cx="788" cy="768" r="3"/><circle cx="824" cy="768" r="3"/><circle cx="860" cy="768" r="3"/><circle cx="896" cy="768" r="3"/><circle cx="932" cy="768" r="3"/><circle cx="968" cy="768" r="3"/><circle cx="1004" cy="768" r="3"/><circle cx="-40" cy="820" r="3"/><circle cx="-4" cy="820" r="3"/><circle cx="32" cy="820" r="3"/><circle cx="68" cy="820" r="3"/><circle cx="104" cy="820" r="3"/><circle cx="140" cy="820" r="3"/><circle cx="176" cy="820" r="3"/><circle cx="212" cy="820" r="3"/><circle cx="248" cy="820" r="3"/><circle cx="284" cy="820" r="3"/><circle cx="320" cy="820" r="3"/><circle cx="356" cy="820" r="3"/><circle cx="392" cy="820" r="3"/><circle cx="428" cy="820" r="3"/><circle cx="464" cy="820" r="3"/><circle cx="500" cy="820" r="3"/><circle cx="536" cy="820" r="3"/><circle cx="572" cy="820" r="3"/><circle cx="608" cy="820" r="3"/><circle cx="644" cy="820" r="3"/><circle cx="680" cy="820" r="3"/><circle cx="716" cy="820" r="3"/><circle cx="752" cy="820" r="3"/><circle cx="788" cy="820" r="3"/><circle cx="824" cy="820" r="3"/><circle cx="860" cy="820" r="3"/><circle cx="896" cy="820" r="3"/><circle cx="932" cy="820" r="3"/><circle cx="968" cy="820" r="3"/><circle cx="1004" cy="820" r="3"/><circle cx="-40" cy="872" r="3"/><circle cx="-4" cy="872" r="3"/><circle cx="32" cy="872" r="3"/><circle cx="68" cy="872" r="3"/><circle cx="104" cy="872" r="3"/><circle cx="140" cy="872" r="3"/><circle cx="176" cy="872" r="3"/><circle cx="212" cy="872" r="3"/><circle cx="248" cy="872" r="3"/><circle cx="284" cy="872" r="3"/><circle cx="320" cy="872" r="3"/><circle cx="356" cy="872" r="3"/><circle cx="392" cy="872" r="3"/><circle cx="428" cy="872" r="3"/><circle cx="464" cy="872" r="3"/><circle cx="500" cy="872" r="3"/><circle cx="536" cy="872" r="3"/><circle cx="572" cy="872" r="3"/><circle cx="608" cy="872" r="3"/><circle cx="644" cy="872" r="3"/><circle cx="680" cy="872" r="3"/><circle cx="716" cy="872" r="3"/><circle cx="752" cy="872" r="3"/><circle cx="788" cy="872" r="3"/><circle cx="824" cy="872" r="3"/><circle cx="860" cy="872" r="3"/><circle cx="896" cy="872" r="3"/><circle cx="932" cy="872" r="3"/><circle cx="968" cy="872" r="3"/><circle cx="1004" cy="872" r="3"/><circle cx="-40" cy="924" r="3"/><circle cx="-4" cy="924" r="3"/><circle cx="32" cy="924" r="3"/><circle cx="68" cy="924" r="3"/><circle cx="104" cy="924" r="3"/><circle cx="140" cy="924" r="3"/><circle cx="176" cy="924" r="3"/><circle cx="212" cy="924" r="3"/><circle cx="248" cy="924" r="3"/><circle cx="284" cy="924" r="3"/><circle cx="320" cy="924" r="3"/><circle cx="356" cy="924" r="3"/><circle cx="392" cy="924" r="3"/><circle cx="428" cy="924" r="3"/><circle cx="464" cy="924" r="3"/><circle cx="500" cy="924" r="3"/><circle cx="536" cy="924" r="3"/><circle cx="572" cy="924" r="3"/><circle cx="608" cy="924" r="3"/><circle cx="644" cy="924" r="3"/><circle cx="680" cy="924" r="3"/><circle cx="716" cy="924" r="3"/><circle cx="752" cy="924" r="3"/><circle cx="788" cy="924" r="3"/><circle cx="824" cy="924" r="3"/><circle cx="860" cy="924" r="3"/><circle cx="896" cy="924" r="3"/><circle cx="932" cy="924" r="3"/><circle cx="968" cy="924" r="3"/><circle cx="1004" cy="924" r="3"/><circle cx="-40" cy="976" r="3"/><circle cx="-4" cy="976" r="3"/><circle cx="32" cy="976" r="3"/><circle cx="68" cy="976" r="3"/><circle cx="104" cy="976" r="3"/><circle cx="140" cy="976" r="3"/><circle cx="176" cy="976" r="3"/><circle cx="212" cy="976" r="3"/><circle cx="248" cy="976" r="3"/><circle cx="284" cy="976" r="3"/><circle cx="320" cy="976" r="3"/><circle cx="356" cy="976" r="3"/><circle cx="392" cy="976" r="3"/><circle cx="428" cy="976" r="3"/><circle cx="464" cy="976" r="3"/><circle cx="500" cy="976" r="3"/><circle cx="536" cy="976" r="3"/><circle cx="572" cy="976" r="3"/><circle cx="608" cy="976" r="3"/><circle cx="644" cy="976" r="3"/><circle cx="680" cy="976" r="3"/><circle cx="716" cy="976" r="3"/><circle cx="752" cy="976" r="3"/><circle cx="788" cy="976" r="3"/><circle cx="824" cy="976" r="3"/><circle cx="860" cy="976" r="3"/><circle cx="896" cy="976" r="3"/><circle cx="932" cy="976" r="3"/><circle cx="968" cy="976" r="3"/><circle cx="1004" cy="976" r="3"/><circle cx="-40" cy="1028" r="3"/><circle cx="-4" cy="1028" r="3"/><circle cx="32" cy="1028" r="3"/><circle cx="68" cy="1028" r="3"/><circle cx="104" cy="1028" r="3"/><circle cx="140" cy="1028" r="3"/><circle cx="176" cy="1028" r="3"/><circle cx="212" cy="1028" r="3"/><circle cx="248" cy="1028" r="3"/><circle cx="284" cy="1028" r="3"/><circle cx="320" cy="1028" r="3"/><circle cx="356" cy="1028" r="3"/><circle cx="392" cy="1028" r="3"/><circle cx="428" cy="1028" r="3"/><circle cx="464" cy="1028" r="3"/><circle cx="500" cy="1028" r="3"/><circle cx="536" cy="1028" r="3"/><circle cx="572" cy="1028" r="3"/><circle cx="608" cy="1028" r="3"/><circle cx="644" cy="1028" r="3"/><circle cx="680" cy="1028" r="3"/><circle cx="716" cy="1028" r="3"/><circle cx="752" cy="1028" r="3"/><circle cx="788" cy="1028" r="3"/><circle cx="824" cy="1028" r="3"/><circle cx="860" cy="1028" r="3"/><circle cx="896" cy="1028" r="3"/><circle cx="932" cy="1028" r="3"/><circle cx="968" cy="1028" r="3"/><circle cx="1004" cy="1028" r="3"/></g><g transform="translate(-12 198) scale(0.9)"><g stroke-linecap="round" stroke-linejoin="round"><g transform="rotate(40 400 375)" stroke="#ffffff" stroke-width="8"><g transform="translate(16 0) rotate(-5 400 375)"><path fill="#ffffff" stroke="#0038b8" stroke-width="8" d=" M 330 420 C 420 440 510 430 560 390 C 612 346 622 282 600 246 C 578 212 540 210 524 238 C 552 266 548 300 516 322 C 482 344 430 344 380 328 Z"/><g fill="none" stroke-width="6"><path d="M 420 360 C 460 358 498 344 524 322"/><path d="M 440 388 C 488 388 532 372 560 344"/></g></g><g fill="#d62828" stroke-width="7.2"><path d="M 580 216 C 612 198 636 200 644 218 C 634 226 616 230 596 228 Z"/><path d="M 600 246 C 638 238 664 244 666 262 C 654 270 634 270 614 262 Z"/><path d="M 604 278 C 638 284 658 298 652 316 C 638 318 620 312 604 300 Z"/></g></g><g transform="translate(415 240) scale(2.6)"><g fill="#d62828" stroke="#d62828" stroke-width="3" stroke-linejoin="round"><g transform="translate(0 7)"><path d="M -50 -5 C -72 0, -90 15, -105 35 C -101 41, -95 44, -88 42 C -78 36, -68 22, -52 10 Z"/></g><g transform="translate(0 2.3)"><path d="M -98 33 C -118 25, -140 23, -152 33 C -145 35, -138 36, -130 37 C -118 38, -108 37, -98 37 Z"/><path d="M -98 47 C -118 55, -140 57, -152 47 C -145 45, -138 44, -130 43 C -118 42, -108 43, -98 43 Z"/></g></g></g><g transform="translate(400 320) scale(2.6) rotate(-50 50 0)"><g fill="#ffffff" stroke="#ffffff" stroke-width="8" stroke-linejoin="round"><path d="M 48 -8 C 75 -5, 105 0, 130 15 C 135 22, 138 30, 136 36 C 128 34, 115 28, 100 22 C 80 15, 62 8, 50 8 Z"/><g transform="rotate(-10 128 15)"><path d="M 128 12 C 148 -5, 185 -20, 222 -5 C 220 2, 212 8, 200 11 C 180 14, 158 15, 138 16 C 132 16, 128 15, 128 12 Z"/><g transform="translate(0 -5)"><path d="M 128 38 C 148 55, 185 70, 222 55 C 220 48, 212 42, 200 39 C 180 36, 158 35, 138 34 C 132 34, 128 35, 128 38 Z"/></g></g></g><g transform="rotate(-10 128 15) translate(0 5)"><path d="M 155 -5 C 175 -10, 195 -10, 210 -5" fill="none" stroke="#cfe0ff" stroke-width="3" stroke-linecap="round" opacity="0.5" transform="rotate(-5 182 -7)"/></g></g><g stroke="#ffffff" stroke-width="8"><path fill="#ffffff" d=" M 400 210 C 280 210 188 260 188 340 C 188 432 268 482 400 482 C 534 482 610 432 610 340 C 610 260 520 210 400 210 Z"/><path fill="#0038b8" stroke="#ffffff" stroke-width="6.8" d=" M 290 360 C 300 320 346 300 400 300 C 454 300 500 320 510 360 C 510 410 460 450 400 450 C 340 450 290 410 290 360 Z"/><g fill="none" stroke="#ffffff" stroke-width="4"><path d="M 195 345 C 260 378 540 378 605 345"/><path d="M 318 418 C 350 432 450 432 482 418"/></g></g><g transform="rotate(-5 400 320)"><g stroke="#ffffff" stroke-width="8"><ellipse cx="400" cy="210" rx="144" ry="120" fill="#0038b8"/></g><g fill="none" stroke="#ffffff" stroke-width="8.4"><path d="M 360 62 C 330 20 314 -10 294 -40"/><path d="M 440 62 C 470 20 486 -10 506 -40"/></g><ellipse cx="294" cy="-40" rx="12" ry="14" fill="#d62828" stroke="#ffffff" stroke-width="5.6"/><ellipse cx="506" cy="-40" rx="12" ry="14" fill="#d62828" stroke="#ffffff" stroke-width="5.6"/><g transform="translate(400 30)" stroke="#ffffff" stroke-width="4.8" stroke-linejoin="round"><path fill="#d62828" d="M -22 0 C -28 -10 -18 -16 -8 -8 L 0 -2 L 8 -8 C 18 -16 28 -10 22 0 C 28 10 18 16 8 8 L 0 2 L -8 8 C -18 16 -28 10 -22 0 Z"/><circle cx="0" cy="0" r="3" fill="#ffffff" stroke="none"/></g><g fill="none" stroke="#ffffff" stroke-width="5.6"><path d="M 342 148 L 336 138"/><path d="M 362 144 L 360 130"/><path d="M 382 148 L 388 138"/><path d="M 418 148 L 412 138"/><path d="M 438 144 L 440 130"/><path d="M 458 148 L 464 138"/></g><ellipse cx="362" cy="186" rx="26" ry="30" fill="#ffffff" stroke="#ffffff" stroke-width="6.8"/><ellipse cx="438" cy="186" rx="26" ry="30" fill="#ffffff" stroke="#ffffff" stroke-width="6.8"/><ellipse cx="370" cy="184" rx="11" ry="15" fill="#002a8c"/><ellipse cx="446" cy="184" rx="11" ry="15" fill="#002a8c"/><circle cx="374" cy="178" r="4" fill="#ffffff"/><circle cx="450" cy="178" r="4" fill="#ffffff"/><circle cx="366" cy="193" r="2" fill="#ffffff"/><circle cx="442" cy="193" r="2" fill="#ffffff"/><g opacity="0.75"><ellipse cx="306" cy="230" rx="16" ry="8" fill="#d62828"/><ellipse cx="494" cy="230" rx="16" ry="8" fill="#d62828"/></g><path fill="none" stroke="#ffffff" stroke-width="8" stroke-linecap="round" d="M 358 250 Q 400 280 442 250"/><path fill="#d62828" stroke="#ffffff" stroke-width="4.4" d="M 390 270 Q 400 278 410 270 Q 400 276 390 270 Z"/></g><g stroke="none"><g transform="translate(590 10) scale(3)"><path fill="#d62828" d="M 0 0 l 5 12 l 12 5 l -12 5 l -5 12 l -5 -12 l -12 -5 l 12 -5 z" opacity="0.9"/></g><g transform="translate(560 -60) scale(3)"><path fill="#ffffff" d="M 0 0 l 3 8 l 8 3 l -8 3 l -3 8 l -3 -8 l -8 -3 l 8 -3 z"/></g></g></g></g><g transform="translate(460 930)" text-anchor="middle"><text font-family="ui-monospace, &quot;SF Mono&quot;, Menlo, monospace" font-size="120" font-weight="700" fill="#ffffff" letter-spacing="-3">OlaClaw</text><text y="52" font-family="ui-monospace, &quot;SF Mono&quot;, Menlo, monospace" font-size="22" fill="#ffffff" letter-spacing="8" opacity="0.8">SNAP · TO · IT</text></g></svg>